<?xml version="1.0" encoding="UTF-8" standalone="no"?>
<svg
   xmlns:dc="http://purl.org/dc/elements/1.1/"
   xmlns:cc="http://creativecommons.org/ns#"
   xmlns:rdf="http://www.w3.org/1999/02/22-rdf-syntax-ns#"
   xmlns:svg="http://www.w3.org/2000/svg"
   xmlns="http://www.w3.org/2000/svg"
   width="48"
   height="48"
   viewBox="0 0 12.7 12.7"
   version="1.1"
   id="svg8">
  <defs
     id="defs2" />
  <metadata
     id="metadata5">
    <rdf:RDF>
      <cc:Work
         rdf:about="">
        <dc:format>image/svg+xml</dc:format>
        <dc:type
           rdf:resource="http://purl.org/dc/dcmitype/StillImage" />
        <dc:title></dc:title>
      </cc:Work>
    </rdf:RDF>
  </metadata>
  <g
     id="layer1">
    <path
       id="path835"
       style="fill:#ffffff;fill-opacity:1;stroke:none;stroke-width:0.999999px;stroke-linecap:butt;stroke-linejoin:miter;stroke-opacity:1"
       d="m 8.0000002,3.9996096 v 0 c -1.6,2e-7 -1.599609,1.5996094 -1.599609,1.5996094 v 0 V 38.9 v 0 0.298828 0 c 0,0.799997 -0.8007816,0.800781 -0.8007816,0.800781 v 0 h -0.5 v 0 H 4.8007814 v 0 c -0.7999997,0 -0.8007812,0.800781 -0.8007812,0.800781 v 0 2.09961 0 0.298828 0 c 0,0.800001 0.8007812,0.800781 0.8007812,0.800781 v 0 L 31.199219,44 C 31.99922,44.000012 32,43.199219 32,43.199219 v -2.09961 -0.298828 C 32,40.00078 31.199219,40 31.199219,40 h -0.5 -0.298828 c -0.8,0 -0.800782,-0.800781 -0.800782,-0.800781 V 6.1992188 5.5996094 C 29.599609,3.9996091 28,4 28,4 Z m 1.6000001,4.0003906 c 0,-0.7999997 0.8007817,-0.8007812 0.8007807,-0.8007812 v 0 l 15.198439,0 c 0.799998,0 0.800781,0.8007812 0.800781,0.8007812 l 7.81e-4,7.1992188 C 26.400869,15.999219 25.600001,16 25.600001,16 l -14.900392,7.81e-4 v 0 h -0.298828 v 0 C 9.6007823,16.000781 9.6000003,15.2 9.6000003,15.2 v 0 z"
       transform="scale(0.26458333)" />
    <path
       style="fill:#ffffff;fill-opacity:1;stroke:none;stroke-width:0.264583px;stroke-linecap:butt;stroke-linejoin:miter;stroke-opacity:1"
       d="m 7.6200001,5.2916667 0.6349998,-1e-7 c 0,0 -0.8466667,0 0,0 0.8466669,0 0.8466669,0.8466667 0.8466669,0.8466667 v 3.1750002 c 0,0 0,-0.2116667 0,0 0,0.2116666 0.2116667,0.2116666 0.2116667,0.2116666 0,0 -0.2116667,0 0,0 0.2116666,0 0.2116666,-0.2116666 0.2116666,-0.2116666 V 4.8683333 l -0.6349999,-0.635 V 3.3866666 l -0.6350003,-0.635 V 1.905 L 10.16,3.81 V 9.3133335 C 10.16,10.16 9.3133335,10.16 9.3133335,10.16 c 0,0 0.8466665,0 0,0 -0.8466667,0 -0.8466667,-0.8466665 -0.8466667,-0.8466665 V 6.1383334 c 0,0 0,0.2116667 0,0 0,-0.2116666 -0.2116667,-0.2116666 -0.2116667,-0.2116666 l -0.635,0 z"
       id="path844" />
  </g>
</svg>
