<?xml version="1.0" encoding="UTF-8" standalone="no"?>
<svg
   xmlns:dc="http://purl.org/dc/elements/1.1/"
   xmlns:cc="http://creativecommons.org/ns#"
   xmlns:rdf="http://www.w3.org/1999/02/22-rdf-syntax-ns#"
   xmlns:svg="http://www.w3.org/2000/svg"
   xmlns="http://www.w3.org/2000/svg"
   xmlns:sodipodi="http://sodipodi.sourceforge.net/DTD/sodipodi-0.dtd"
   xmlns:inkscape="http://www.inkscape.org/namespaces/inkscape"
   width="48"
   height="48"
   viewBox="0 0 12.7 12.7"
   version="1.1"
   id="svg8"
   sodipodi:docname="gearshift.svg"
   inkscape:version="1.0.1 (c497b03c, 2020-09-10)">
  <sodipodi:namedview
     pagecolor="#ffffff"
     bordercolor="#666666"
     borderopacity="1"
     objecttolerance="10"
     gridtolerance="10"
     guidetolerance="10"
     inkscape:pageopacity="0"
     inkscape:pageshadow="2"
     inkscape:window-width="2560"
     inkscape:window-height="1052"
     id="namedview843"
     showgrid="false"
     inkscape:zoom="14.416667"
     inkscape:cx="24"
     inkscape:cy="24"
     inkscape:window-x="0"
     inkscape:window-y="0"
     inkscape:window-maximized="0"
     inkscape:current-layer="svg8" />
  <defs
     id="defs2" />
  <metadata
     id="metadata5">
    <rdf:RDF>
      <cc:Work
         rdf:about="">
        <dc:format>image/svg+xml</dc:format>
        <dc:type
           rdf:resource="http://purl.org/dc/dcmitype/StillImage" />
        <dc:title />
      </cc:Work>
    </rdf:RDF>
  </metadata>
  <g
     id="layer1"
     style="fill:#ffffff;fill-opacity:1">
    <path
       style="fill:#ffffff;fill-opacity:1;stroke:none;stroke-width:0.26458300000000001px;stroke-linecap:butt;stroke-linejoin:miter;stroke-opacity:1"
       d="M 2.54,3.175 V 9.5250001 H 3.3866667 V 6.9849999 c 0,-0.2116667 0.2116667,-0.2116667 0.2116667,-0.2116667 H 5.715 c 0,0 -0.2116667,0 0,0 0.2116666,0 0.2116666,0.2116667 0.2116666,0.2116667 V 9.5250001 H 6.7733333 V 6.9849999 C 6.7733333,6.7733332 6.985,6.7733332 6.985,6.7733332 L 9.7334013,6.7579809 C 10.16,6.755598 10.16,6.3500001 10.16,6.3500001 V 3.175 H 9.3133333 v 2.5399999 c 0,0.2116667 -0.2116667,0.2116667 -0.2116667,0.2116667 H 8.1445648 6.985 c -0.2116666,2e-7 -0.2116666,-0.2116665 -0.2116666,-0.2116665 l 10e-8,-2.54 H 5.9266668 v 2.54 c 0,0 0,-0.2116667 0,0 0,0.2116667 -0.2116667,0.2116667 -0.2116667,0.2116667 H 3.5983334 c 0,0 0.2116667,0 0,0 -0.2116667,0 -0.2116667,-0.2116667 -0.2116667,-0.2116667 v -2.54 z"
       id="path835" />
    <path
       style="fill:#ffffff;fill-opacity:1;stroke:none;stroke-width:1.365;stroke-linecap:round;stroke-linejoin:round"
       id="path837"
       d="M 4.0224131,2.3680744 A 1.0583333,1.0583333 0 0 1 2.9740173,3.426361 1.0583333,1.0583333 0 0 1 1.9059332,2.3879485 1.0583333,1.0583333 0 0 1 2.9342709,1.310161 1.0583333,1.0583333 0 0 1 4.0216667,2.3283333" />
    <path
       style="fill:#ffffff;fill-opacity:1;stroke:none;stroke-width:1.365;stroke-linecap:round;stroke-linejoin:round"
       id="path837-7"
       d="M 7.4090799,2.3680744 A 1.0583333,1.0583333 0 0 1 6.3606841,3.426361 1.0583333,1.0583333 0 0 1 5.2926,2.3879485 1.0583333,1.0583333 0 0 1 6.3209377,1.310161 1.0583333,1.0583333 0 0 1 7.4083335,2.3283333" />
    <path
       style="fill:#ffffff;fill-opacity:1;stroke:none;stroke-width:1.365;stroke-linecap:round;stroke-linejoin:round"
       id="path837-8"
       d="M 10.795747,2.3680744 A 1.0583333,1.0583333 0 0 1 9.7473509,3.426361 1.0583333,1.0583333 0 0 1 8.6792667,2.3879485 1.0583333,1.0583333 0 0 1 9.7076045,1.310161 1.0583333,1.0583333 0 0 1 10.795,2.3283333" />
    <path
       style="fill:#ffffff;fill-opacity:1;stroke:none;stroke-width:1.365;stroke-linecap:round;stroke-linejoin:round"
       id="path837-4"
       d="M 7.4090799,10.411407 A 1.0583333,1.0583333 0 0 1 6.3606841,11.469694 1.0583333,1.0583333 0 0 1 5.2926,10.431282 1.0583333,1.0583333 0 0 1 6.3209377,9.3534941 1.0583333,1.0583333 0 0 1 7.4083335,10.371666" />
    <path
       style="fill:#ffffff;fill-opacity:1;stroke:none;stroke-width:1.365;stroke-linecap:round;stroke-linejoin:round"
       id="path837-1"
       d="M 4.0224131,10.411407 A 1.0583333,1.0583333 0 0 1 2.9740173,11.469694 1.0583333,1.0583333 0 0 1 1.9059332,10.431282 1.0583333,1.0583333 0 0 1 2.9342709,9.3534941 1.0583333,1.0583333 0 0 1 4.0216667,10.371666" />
  </g>
</svg>
