<?xml version="1.0" encoding="UTF-8" standalone="no"?>
<svg
   xmlns:dc="http://purl.org/dc/elements/1.1/"
   xmlns:cc="http://creativecommons.org/ns#"
   xmlns:rdf="http://www.w3.org/1999/02/22-rdf-syntax-ns#"
   xmlns:svg="http://www.w3.org/2000/svg"
   xmlns="http://www.w3.org/2000/svg"
   xmlns:sodipodi="http://sodipodi.sourceforge.net/DTD/sodipodi-0.dtd"
   xmlns:inkscape="http://www.inkscape.org/namespaces/inkscape"
   width="48"
   height="48"
   viewBox="0 0 12.7 12.7"
   version="1.1"
   id="svg8"
   sodipodi:docname="lock.svg"
   inkscape:version="1.0.1 (c497b03c, 2020-09-10)">
  <sodipodi:namedview
     pagecolor="#ffffff"
     bordercolor="#666666"
     borderopacity="1"
     objecttolerance="10"
     gridtolerance="10"
     guidetolerance="10"
     inkscape:pageopacity="0"
     inkscape:pageshadow="2"
     inkscape:window-width="940"
     inkscape:window-height="1052"
     id="namedview838"
     showgrid="false"
     inkscape:zoom="14.416667"
     inkscape:cx="24"
     inkscape:cy="24"
     inkscape:window-x="1620"
     inkscape:window-y="0"
     inkscape:window-maximized="0"
     inkscape:current-layer="svg8" />
  <defs
     id="defs2" />
  <metadata
     id="metadata5">
    <rdf:RDF>
      <cc:Work
         rdf:about="">
        <dc:format>image/svg+xml</dc:format>
        <dc:type
           rdf:resource="http://purl.org/dc/dcmitype/StillImage" />
        <dc:title />
      </cc:Work>
    </rdf:RDF>
  </metadata>
  <g
     id="layer1"
     style="fill:#cc3333;fill-opacity:1">
    <path
       id="rect835"
       style="fill:#cc3333;stroke-width:5.15906;stroke-linecap:round;stroke-linejoin:round;fill-opacity:1"
       d="M 23.632812 5.3261719 C 17.698095 5.3261719 12.921875 10.104344 12.921875 16.039062 L 12.921875 19.501953 C 12.921875 19.670263 12.939663 19.833635 12.947266 20 L 11.199219 20 C 9.4264179 20 8 21.426418 8 23.199219 L 8 40.800781 C 8 42.573584 9.4264179 44 11.199219 44 L 36.800781 44 C 38.573581 44 40 42.573584 40 40.800781 L 40 23.199219 C 40 21.426418 38.573581 20 36.800781 20 L 35.294922 20 C 35.302523 19.833649 35.320312 19.670248 35.320312 19.501953 L 35.320312 16.039062 C 35.320312 10.104344 30.542141 5.3261719 24.607422 5.3261719 L 23.632812 5.3261719 z M 23.595703 8.6445312 L 24.646484 8.6445312 C 28.721526 8.6445312 32 11.924959 32 16 L 32 19.541016 C 32 19.696087 31.985922 19.847365 31.976562 20 L 16.261719 20 C 16.252356 19.847385 16.238281 19.696067 16.238281 19.541016 L 16.238281 16 C 16.238281 11.924959 19.520662 8.6445313 23.595703 8.6445312 z M 24 24.800781 A 3.9999999 3.9999999 0 0 1 27.941406 28.650391 L 27.945312 28.800781 A 3.9999999 3.9999999 0 0 1 25.800781 32.34375 L 27.142578 39.050781 L 20.742188 39.050781 L 22.083984 32.339844 A 3.9999999 3.9999999 0 0 1 19.945312 28.876953 A 3.9999999 3.9999999 0 0 1 23.832031 24.802734 A 3.9999999 3.9999999 0 0 1 24 24.800781 z "
       transform="scale(0.26458333)" />
  </g>
</svg>
