<?xml version="1.0" encoding="UTF-8" standalone="no"?>
<svg
   xmlns:dc="http://purl.org/dc/elements/1.1/"
   xmlns:cc="http://creativecommons.org/ns#"
   xmlns:rdf="http://www.w3.org/1999/02/22-rdf-syntax-ns#"
   xmlns:svg="http://www.w3.org/2000/svg"
   xmlns="http://www.w3.org/2000/svg"
   width="48"
   height="48"
   viewBox="0 0 12.7 12.7"
   version="1.1"
   id="svg8">
  <defs
     id="defs2" />
  <metadata
     id="metadata5">
    <rdf:RDF>
      <cc:Work
         rdf:about="">
        <dc:format>image/svg+xml</dc:format>
        <dc:type
           rdf:resource="http://purl.org/dc/dcmitype/StillImage" />
        <dc:title></dc:title>
      </cc:Work>
    </rdf:RDF>
  </metadata>
  <g
     id="layer1">
    <path
       id="rect841"
       style="fill:#feffff;fill-opacity:1;stroke:none;stroke-width:0.999999;stroke-opacity:1"
       d="M 5.5996094,20 C 4.7132461,20.008117 4,20.713209 4,21.599609 v 4.800782 C 4,27.286791 4.7132461,28.008117 5.5996094,28 l 6.4657136,-0.05921 c 0.886364,-0.0081 1.599609,-0.713209 1.599609,-1.599609 v -4.800782 c 0,-0.8864 -0.713245,-1.607726 -1.599609,-1.599609 z m 0.8007812,1.599609 4.8641514,-0.05921 c 0.443167,-0.0054 0.800781,0.357579 0.800781,0.800782 v 3.199218 c 0,0.443201 -0.357612,0.795387 -0.800781,0.800782 l -4.8641514,0.05921 c -0.4431678,0.0054 -0.8007812,-0.357579 -0.8007812,-0.800782 v -3.199218 c 0,-0.443201 0.3576119,-0.795387 0.8007812,-0.800782 z"
       transform="scale(0.26458333)" />
    <path
       id="path850"
       style="fill:#feffff;fill-opacity:1;stroke:none;stroke-width:0.999999px;stroke-linecap:butt;stroke-linejoin:miter;stroke-opacity:1"
       d="m 15.264543,16.741567 c 0,0 -3.199219,-7.81e-4 -3.199219,3.199219 v 8 c 0,0 -7.81e-4,3.199219 3.199219,3.199219 h 1.201172 0.40039 c 0,0 1.59961,3.9e-4 1.59961,-1.59961 V 18.341177 c 0,0 3.9e-4,-1.59961 -1.59961,-1.59961 z m 0,1.59961 h 0.800781 c 0.8,0 0.800781,0.798828 0.800781,0.798828 v 9.601562 c 0,0.8 -0.800781,0.798828 -0.800781,0.798828 h -0.199219 -0.601562 c -1.600001,0 -1.59961,-1.599609 -1.59961,-1.599609 v -7.400391 -0.599609 c 0,-1.6 1.59961,-1.599609 1.59961,-1.599609 z"
       transform="scale(0.26458333)" />
    <path
       id="rect877"
       style="fill:#ffffff;fill-opacity:1;stroke:none;stroke-width:0.999999;stroke-opacity:1"
       d="m 15.231881,17.599609 c -0.8864,0 -1.59961,0.71321 -1.59961,1.59961 V 20 c 0,0 7.82e-4,-0.80078 0.800782,-0.800781 0,0 0.798828,7.8e-4 0.798828,0.800781 V 20.300781 28 c 0,0 0.0012,0.800781 -0.798828,0.800781 0,0 -0.800782,-7.81e-4 -0.800782,-0.800781 0,0.8864 0.71321,1.599609 1.59961,1.599609 h 0.800781 c 0.8864,0 1.599609,-0.713209 1.599609,-1.599609 v -8.800781 c 0,-0.8864 -0.713209,-1.59961 -1.599609,-1.59961 z"
       transform="scale(0.26458333)" />
    <path
       id="rect903"
       style="fill:#ffffff;fill-opacity:1;stroke:none;stroke-width:0.999999;stroke-opacity:1"
       d="m 18.433053,20.800781 c -0.886401,0 -1.59961,0.713209 -1.59961,1.59961 v 3.199218 c 0,0.886401 0.713209,1.59961 1.59961,1.59961 h 5.599609 c 0.8864,0 1.599609,-0.713209 1.599609,-1.59961 v -3.199218 c 0,-0.886401 -0.713209,-1.59961 -1.599609,-1.59961 z m 0.798828,1.59961 h 4 c 0.443201,0 0.800781,0.355629 0.800781,0.798828 v 1.601562 c 0,0.443201 -0.357582,0.798828 -0.800781,0.798828 h -4 c -0.443201,0 -0.798828,-0.355628 -0.798828,-0.798828 v -1.601562 c 0,-0.443201 0.355629,-0.798828 0.798828,-0.798828 z"
       transform="scale(0.26458333)" />
    <path
       id="rect913"
       style="fill:#ffffff;fill-opacity:1;stroke:none;stroke-width:0.264583;stroke-opacity:1"
       d="m 7.6202074,4.8684374 c -0.2345267,0 -0.4237466,0.1887032 -0.4237466,0.4232299 v 2.1166666 c 0,0.2345267 0.1892199,0.4232299 0.4237466,0.4232299 h 1.69292 c 0.2345259,0 0.4237466,-0.1887032 0.4237466,-0.4232299 V 5.2916673 c 0,-0.2345267 -0.1892207,-0.4232299 -0.4237466,-0.4232299 z m 0.4232301,0.4232299 h 0.8464598 c 0.2345269,0 0.4232301,0.1887032 0.4232301,0.4232298 V 6.985104 c 0,0.2345267 -0.1887032,0.4232299 -0.4232301,0.4232299 H 8.0434375 c -0.2345266,0 -0.4232301,-0.1887032 -0.4232301,-0.4232299 V 5.7148971 c 0,-0.2345266 0.1887035,-0.4232298 0.4232301,-0.4232298 z" />
    <rect
       style="fill:#ffffff;fill-opacity:1;stroke:none;stroke-width:0.264583;stroke-opacity:1"
       id="rect920"
       width="1.27"
       height="1.6933334"
       x="7.8316679"
       y="5.503334"
       ry="0.21166652" />
    <path
       id="rect922"
       style="fill:#ffffff;fill-opacity:1;stroke:none;stroke-width:1.04881;stroke-opacity:1"
       d="M 36 20 C 35.5568 20 35.199219 20.357582 35.199219 20.800781 L 35.199219 27.199219 C 35.199219 27.642419 35.556801 28 36 28 L 43.199219 28 C 43.642433 28 44 27.642418 44 27.199219 L 44 20.800781 C 44 20.357581 43.642417 20 43.199219 20 L 36 20 z M 37.599609 21.599609 L 41.599609 21.599609 C 42.042808 21.599609 42.400391 21.95719 42.400391 22.400391 L 42.400391 25.599609 C 42.400391 26.042809 42.042819 26.400391 41.599609 26.400391 L 37.599609 26.400391 C 37.15641 26.400391 36.800781 26.04281 36.800781 25.599609 L 36.800781 22.400391 C 36.800781 21.957191 37.156409 21.599609 37.599609 21.599609 z "
       transform="scale(0.26458333)" />
  </g>
</svg>
